<?xml version="1.0" encoding="UTF-8"?>
<!-- Generator: Adobe Illustrator 22.1.0, SVG Export Plug-In . SVG Version: 6.00 Build 0)  -->
<svg version="1.1" id="Regular" xmlns="http://www.w3.org/2000/svg" xmlns:xlink="http://www.w3.org/1999/xlink" x="0px" y="0px" viewBox="0 0 24 24" style="enable-background:new 0 0 24 24;" xml:space="preserve">
<title>fast-food-burger</title>
<g>
	<path d="M6.375,8.626c-0.62,0-1.125-0.505-1.125-1.125C5.249,7.202,5.365,6.919,5.577,6.706c0.212-0.213,0.494-0.33,0.794-0.331   c0,0,0.026,0.001,0.039,0.002C7.025,6.4,7.5,6.895,7.5,7.501C7.5,8.121,6.995,8.626,6.375,8.626z"/>
	<path d="M10.4,9.751c-0.62,0-1.125-0.505-1.125-1.125C9.274,8.328,9.39,8.045,9.602,7.832c0.212-0.213,0.494-0.331,0.793-0.331   c0.625,0,1.129,0.505,1.129,1.125S11.02,9.751,10.4,9.751z"/>
	<path d="M17.625,9.751c-0.62,0-1.125-0.505-1.125-1.125c-0.001-0.618,0.501-1.123,1.121-1.125c0.625,0,1.129,0.505,1.129,1.125   S18.245,9.751,17.625,9.751z"/>
	<path d="M14.152,8.251c-0.62,0-1.125-0.505-1.125-1.125c-0.001-0.298,0.115-0.58,0.327-0.794c0.212-0.213,0.493-0.33,0.793-0.331   c0.625,0,1.13,0.505,1.13,1.125S14.772,8.251,14.152,8.251z"/>
	<path d="M5.25,21.001c-2.068,0-3.75-1.682-3.75-3.75v-1.156C0.582,15.562,0,14.568,0,13.501c0-1.067,0.582-2.06,1.5-2.594V9.94   c0.001-3.826,3.114-6.939,6.939-6.939h7.121c3.827,0,6.94,3.113,6.94,6.939v0.967c0.918,0.533,1.5,1.527,1.5,2.594   s-0.582,2.061-1.5,2.594v1.156c0,2.068-1.682,3.75-3.75,3.75H5.25z M3,17.251c0,1.241,1.009,2.25,2.25,2.25h13.5   c1.241,0,2.25-1.009,2.25-2.25v-0.75H3V17.251z M3,12.001c-0.827,0-1.5,0.673-1.5,1.5s0.673,1.5,1.5,1.5h18   c0.827,0,1.5-0.673,1.5-1.5s-0.673-1.5-1.5-1.5H3z M21,10.501V9.94c0-2.999-2.44-5.439-5.439-5.439H8.44   c-2.999,0-5.439,2.44-5.44,5.438v0.562H21z"/>
</g>
</svg>