<?xml version="1.0" standalone="no"?>
<!DOCTYPE svg PUBLIC "-//W3C//DTD SVG 20010904//EN"
 "http://www.w3.org/TR/2001/REC-SVG-20010904/DTD/svg10.dtd">
<svg version="1.0" xmlns="http://www.w3.org/2000/svg"
 width="361.000000pt" height="361.000000pt" viewBox="0 0 361.000000 361.000000"
 preserveAspectRatio="xMidYMid meet">
<metadata>
Created by potrace 1.11, written by Peter Selinger 2001-2013
</metadata>
<g transform="translate(0.000000,361.000000) scale(0.100000,-0.100000)"
fill="#000000" stroke="none">
<path d="M1230 3600 c-39 -7 -79 -29 -81 -45 -1 -5 -2 -21 -4 -35 -1 -14 -6
-70 -9 -125 -4 -55 -9 -116 -11 -135 -2 -19 -6 -80 -10 -135 -4 -55 -8 -112
-10 -127 -2 -14 -6 -73 -10 -130 -4 -56 -8 -119 -10 -138 -2 -19 -6 -78 -10
-130 -3 -52 -8 -108 -10 -125 -2 -16 -6 -75 -10 -130 -3 -55 -8 -116 -10 -135
-2 -19 -7 -75 -10 -125 -3 -49 -8 -110 -10 -135 -2 -25 -7 -81 -10 -125 -4
-44 -8 -100 -10 -125 -2 -25 -7 -85 -10 -135 -3 -49 -8 -106 -10 -125 -2 -19
-7 -80 -11 -135 -3 -55 -8 -110 -9 -123 -5 -49 13 -2 48 123 34 120 72 291 83
375 2 19 6 42 9 50 2 8 7 40 10 70 3 30 8 66 10 80 4 26 22 191 30 270 3 25 7
86 10 135 3 50 8 115 10 145 3 30 7 98 10 150 3 52 7 133 10 180 3 47 7 130
10 185 12 245 34 547 40 553 15 17 323 32 380 18 11 -2 41 -9 67 -15 254 -58
406 -270 413 -574 6 -264 -90 -549 -260 -775 -26 -34 -50 -60 -54 -58 -3 2
-49 8 -101 11 -52 4 -98 9 -101 11 -3 2 -16 -10 -27 -26 -20 -27 -21 -34 -11
-82 6 -29 15 -57 19 -61 4 -5 32 -9 61 -9 56 -1 91 14 202 82 85 53 161 58
292 19 83 -25 231 -97 297 -145 160 -118 228 -349 182 -614 -72 -417 -307
-755 -678 -972 -148 -87 -414 -191 -516 -202 -25 -3 -72 -8 -105 -11 -33 -3
-76 -8 -95 -11 -19 -2 -61 -6 -92 -9 -115 -11 -144 -14 -193 -21 l-50 -7 55
-13 c230 -55 475 -31 740 71 242 93 459 235 651 425 177 175 289 346 352 537
45 135 52 179 50 323 -2 227 -68 383 -215 506 -78 66 -251 149 -413 198 -118
36 -145 47 -145 57 0 5 31 84 69 176 70 170 112 300 131 402 5 31 13 67 16 81
3 14 8 82 10 151 7 201 -34 325 -144 434 -88 87 -227 150 -399 180 -122 21
-344 35 -403 25z m449 -1559 c10 -7 8 -12 -10 -25 -23 -16 -49 -21 -49 -10 0
3 5 14 10 25 11 20 27 24 49 10z"/>
</g>
</svg>
